HIERARCHY
ROOT Hips
{
 OFFSET 0.000000 0.000000 0.000000
 CHANNELS 6 Xposition Yposition Zposition Yrotation Xrotation Zrotation
 JOINT Chest
 {
  OFFSET 0.000000 10.080317 -0.001081
  CHANNELS 3 Yrotation Xrotation Zrotation
  JOINT Chest2
  {
   OFFSET 0.000000 11.096852 0.001963
   CHANNELS 3 Yrotation Xrotation Zrotation
   JOINT Chest3
   {
    OFFSET 0.000000 10.026525 0.000000
    CHANNELS 3 Yrotation Xrotation Zrotation
    JOINT Chest4
    {
     OFFSET 0.000000 10.026525 0.000000
     CHANNELS 3 Yrotation Xrotation Zrotation
     JOINT Neck
     {
      OFFSET 0.000000 14.108171 0.000000
      CHANNELS 3 Yrotation Xrotation Zrotation
      JOINT Head
      {
       OFFSET 0.000000 9.333493 0.004668
       CHANNELS 3 Yrotation Xrotation Zrotation
       End Site
       {
        OFFSET 0.000000 17.851786 0.002438
       }
      }
     }
     JOINT RightCollar
     {
      OFFSET -3.071622 7.873185 0.000000
      CHANNELS 3 Yrotation Xrotation Zrotation
      JOINT RightShoulder
      {
       OFFSET -14.378659 0.000000 0.000000
       CHANNELS 3 Yrotation Xrotation Zrotation
       JOINT RightElbow
       {
        OFFSET -30.778728 0.000000 0.000000
        CHANNELS 3 Yrotation Xrotation Zrotation
        JOINT RightWrist
        {
         OFFSET -25.164217 0.000000 0.000000
         CHANNELS 3 Yrotation Xrotation Zrotation
         End Site
         {
          OFFSET -18.796788 0.000000 0.000000
         }
        }
       }
      }
     }
     JOINT LeftCollar
     {
      OFFSET 3.071622 7.873185 0.000000
      CHANNELS 3 Yrotation Xrotation Zrotation
      JOINT LeftShoulder
      {
       OFFSET 14.378659 0.000000 0.000000
       CHANNELS 3 Yrotation Xrotation Zrotation
       JOINT LeftElbow
       {
        OFFSET 30.778728 0.000000 0.000000
        CHANNELS 3 Yrotation Xrotation Zrotation
        JOINT LeftWrist
        {
         OFFSET 25.164217 0.000000 0.000000
         CHANNELS 3 Yrotation Xrotation Zrotation
         End Site
         {
          OFFSET 18.796788 0.000000 0.000000
         }
        }
       }
      }
     }
    }
   }
  }
 }
 JOINT RightHip
 {
  OFFSET -8.194923 0.005295 0.000540
  CHANNELS 3 Yrotation Xrotation Zrotation
  JOINT RightKnee
  {
   OFFSET 0.000000 -42.473320 -0.000511
   CHANNELS 3 Yrotation Xrotation Zrotation
   JOINT RightAnkle
   {
    OFFSET 0.000000 -41.474259 -0.000865
    CHANNELS 3 Yrotation Xrotation Zrotation
    JOINT RightToe
    {
     OFFSET 0.000000 -7.354994 16.712725
     CHANNELS 3 Yrotation Xrotation Zrotation
     End Site
     {
      OFFSET 0.000000 -1.553903 6.764158
     }
    }
   }
  }
 }
 JOINT LeftHip
 {
  OFFSET 8.194923 0.005295 0.000540
  CHANNELS 3 Yrotation Xrotation Zrotation
  JOINT LeftKnee
  {
   OFFSET 0.000000 -42.473320 -0.000511
   CHANNELS 3 Yrotation Xrotation Zrotation
   JOINT LeftAnkle
   {
    OFFSET 0.000000 -41.474259 -0.000865
    CHANNELS 3 Yrotation Xrotation Zrotation
    JOINT LeftToe
    {
     OFFSET 0.000000 -7.354994 16.712725
     CHANNELS 3 Yrotation Xrotation Zrotation
     End Site
     {
      OFFSET 0.000000 -1.553903 6.764158
     }
    }
   }
  }
 }
}
MOTION
Frames: 5
Frame Time: 0.016667
-38.555273 89.175644 135.541096 16.723944 5.872019 6.118030 -3.338247 4.833810 3.144322 -1.992562 2.134971 1.269037 -1.992562 2.134971 1.269037 -1.498691 1.597120 0.958644 11.018687 17.467109 -4.632491 21.825392 -2.106451 -12.132791 13.346499 -13.892127 -4.846117 36.020004 -34.273735 14.188949 29.655931 17.416832 5.822179 7.462481 1.592982 -26.333720 -23.143200 -16.857812 3.850076 -44.809517 -57.360313 -32.589955 -40.421988 32.043055 -21.534544 2.207040 8.007506 35.438543 -5.643565 -32.225465 1.840054 2.917165 27.788177 -4.825160 -1.962244 -0.791961 -1.378641 -0.048157 0.598733 -0.023960 15.427490 5.302639 -0.779269 2.922468 14.563130 -7.007835 5.900122 -20.055237 -0.237801 -0.035134 -0.276502 -0.115972
-38.533794 89.219435 135.605832 16.462949 5.879566 5.992483 -3.266013 4.805819 3.223216 -2.003680 2.095759 1.286617 -2.003680 2.095759 1.286617 -1.507014 1.567630 0.971741 11.014720 17.463621 -4.558619 21.795494 -2.130132 -11.997820 12.817642 -13.530002 -4.124095 34.864566 -34.473465 14.885155 32.550768 16.529304 7.249805 5.895919 1.260996 -23.170624 -22.614598 -16.129741 3.338463 -42.431703 -56.847311 -33.816835 -43.930009 30.344375 -23.649681 3.353297 8.084762 32.045207 -5.775841 -31.974171 2.042132 3.133203 27.401772 -4.703917 -1.898755 -0.672163 -1.500909 -0.047413 0.633673 0.001234 15.612996 5.470854 -0.663225 3.003294 14.324736 -7.004438 5.859494 -19.875032 -0.306536 -0.004690 -0.359063 -0.047657
-38.536109 89.272443 135.641216 16.139163 5.957145 5.852801 -3.127307 4.720623 3.318035 -2.024358 2.052313 1.307811 -2.024358 2.052313 1.307811 -1.522507 1.534931 0.987567 11.003013 17.446536 -4.511612 21.762116 -2.174190 -11.912091 12.295979 -13.140014 -3.394576 33.747968 -34.512185 15.588696 35.170574 15.981122 8.753390 5.032371 1.186154 -20.692524 -22.000755 -15.369520 2.694769 -39.886579 -56.283039 -35.183911 -47.514644 28.870803 -25.882395 4.319802 8.343652 28.969691 -5.803651 -31.776009 2.237358 3.227385 26.932879 -4.594850 -1.789098 -0.469095 -1.648102 -0.029506 0.658140 0.018637 15.831556 5.499425 -0.529816 3.104687 14.178032 -7.060747 5.846342 -19.685477 -0.372725 0.017275 -0.443097 0.021086
-38.547824 89.337024 135.673553 15.946787 6.014609 5.752080 -3.081469 4.685684 3.411553 -2.051823 2.009100 1.333949 -2.051823 2.009100 1.333949 -1.543105 1.502376 1.007120 10.965898 17.425700 -4.470917 21.684796 -2.228691 -11.830876 11.740313 -12.753652 -2.670888 32.625270 -34.378991 16.429505 37.621582 15.880663 10.205125 4.852109 1.482101 -19.167024 -21.319371 -14.630761 2.035861 -37.131904 -55.628995 -36.839855 -51.025666 27.500854 -28.095327 5.083713 8.823117 26.400586 -5.986910 -31.531584 2.390399 3.386727 26.392149 -4.435301 -1.660710 -0.229888 -1.778435 -0.040555 0.686631 0.008588 16.010242 5.457835 -0.342243 3.075821 14.171513 -7.232828 5.798590 -19.481343 -0.437706 0.091848 -0.561444 0.122734
-38.585491 89.440578 135.654137 15.865611 6.149791 5.706388 -3.084956 4.560407 3.474962 -2.086419 1.961822 1.363055 -2.086419 1.961822 1.363055 -1.569048 1.466743 1.028905 10.909366 17.436464 -4.414723 21.561755 -2.232489 -11.709291 11.254077 -12.274818 -1.953040 31.229686 -34.040623 17.523655 40.037614 15.942399 11.482323 4.975788 1.861158 -18.496376 -20.463786 -13.865300 1.397226 -34.395566 -54.841235 -38.725591 -54.091782 26.029799 -30.044484 5.460296 9.312113 24.333490 -6.251153 -31.395741 2.487594 3.463389 25.802434 -4.257262 -1.471683 0.146299 -1.937796 -0.047838 0.646266 -0.009307 16.146659 5.219459 -0.156542 2.884275 14.319569 -7.496698 5.811625 -19.263901 -0.526179 0.151671 -0.684896 0.242189
